<?xml version="1.0" standalone="no"?>
<!DOCTYPE svg PUBLIC "-//W3C//DTD SVG 1.0//EN" "http://www.w3.org/TR/2001/REC-SVG-20010904/DTD/svg10.dtd">
<svg xmlns="http://www.w3.org/2000/svg" width="1024"
     height="768">

    <g transform="matrix(1.5 0 0 1.5 128.00003 -0)">
        <path d="M512 512L350.61 198.29L466.47 82.43C 474.1834 74.44415 474.07214 61.74955 466.21997 53.900112C 458.3678 46.050674 445.6732 45.94384 437.69 53.66L437.69 53.66L331.05 160.28L248.61 0L173.93 153.8L73.76 53.66C 65.80926 45.754066 52.96009 45.77334 45.0331 53.703087C 37.106106 61.63284 37.0913 74.482 45 82.43L45 82.43L155.12 192.54L0 512L512 512zM43.36 484.86L47.36 476.66998C 55.228443 483.11255 66.723045 482.44278 73.79 475.12997L73.79 475.12997L255.79001 293.12997L437.79 475.12997C 444.63446 482.27704 455.75696 483.13824 463.62 477.12997L463.62 477.12997L467.62 484.90997zM427.84003 407.71997L284.51 264.39L330.51 218.39001zM249.31 60.7L310.9 180.43L255.73 235.62L194.23 174.12zM226.95 264.39L78.16 413.17L175.41 212.86002z"
              stroke="none" fill="#00838d"/>
    </g>
</svg>